<?xml version="1.0" encoding="utf-8"?>
<!-- Generator: Adobe Illustrator 16.0.0, SVG Export Plug-In . SVG Version: 6.00 Build 0)  -->
<!DOCTYPE svg PUBLIC "-//W3C//DTD SVG 1.1//EN" "http://www.w3.org/Graphics/SVG/1.1/DTD/svg11.dtd">
<svg version="1.1" id="Calque_1" xmlns="http://www.w3.org/2000/svg" xmlns:xlink="http://www.w3.org/1999/xlink" x="0px" y="0px"
	 width="1036px" height="269px" viewBox="0 0 1036 269" enable-background="new 0 0 1036 269" xml:space="preserve">
<path fill="#C42127" d="M0,91.981c0,0,130.907-32.153,205.549-24.114l4.592,170.006c0,0-155.025,19.465-208.996,30.951
	l40.196-97.609L0,91.981z"/>
<polygon fill="#681C1D" points="210.141,63.328 137.655,174.662 99.904,196.533 210.141,237.874 "/>
<path fill="#C42127" d="M1035.67,91.858c0,0-130.912-32.153-205.553-24.117l-4.588,170.006c0,0,155.021,19.466,208.993,30.952
	l-40.197-97.607L1035.67,91.858z"/>
<polygon fill="#681C1D" points="825.529,63.205 898.014,174.536 935.768,196.408 825.529,237.748 "/>
<path fill="#ED2324" d="M935.892,196.479c0,0-94.16-34.125-417.991-34.125c-323.835,0-417.995,34.125-417.995,34.125L97.07,48.013
	C97.07,48.013,242.295,0,517.9,0c275.6,0,415.156,48.013,415.156,48.013L935.892,196.479z"/>
<path fill="none" d="M-88.307,172.271c225.261-75.877,746.512-78.89,965.82-39.071"/>
<text transform="matrix(0.9965 -0.0831 0.0831 0.9965 201.5957 120.5518)"><tspan x="0" y="0" fill="#FFFFFF" font-family="'Castellar'" font-size="72">J</tspan><tspan x="38.01" y="-0.098" fill="#FFFFFF" font-family="'Castellar'" font-size="72" rotate="0.986">o</tspan><tspan x="100.06" y="0.994" fill="#FFFFFF" font-family="'Castellar'" font-size="72" rotate="2.057">y</tspan><tspan x="158.359" y="3.151" fill="#FFFFFF" font-family="'Castellar'" font-size="72" rotate="2.879">e</tspan><tspan x="199.423" y="5.143" fill="#FFFFFF" font-family="'Castellar'" font-size="72" rotate="3.698">u</tspan><tspan x="261.424" y="9.241" fill="#FFFFFF" font-family="'Castellar'" font-size="72" rotate="4.451">s</tspan><tspan x="295.67" y="11.888" fill="#FFFFFF" font-family="'Castellar'" font-size="72" rotate="5.044">e</tspan><tspan x="336.652" y="15.521" fill="#FFFFFF" font-family="'Castellar'" font-size="72" rotate="5.65">s</tspan><tspan x="370.877" y="18.925" fill="#FFFFFF" font-family="'Castellar'" font-size="72" rotate="6.149"> </tspan><tspan x="396.526" y="21.647" fill="#FFFFFF" font-family="'Castellar'" font-size="72" rotate="6.731">F</tspan><tspan x="437.336" y="26.459" fill="#FFFFFF" font-family="'Castellar'" font-size="72" rotate="7.498">ê</tspan><tspan x="478.049" y="31.761" fill="#FFFFFF" font-family="'Castellar'" font-size="72" rotate="8.469">t</tspan><tspan x="529.029" y="39.387" fill="#FFFFFF" font-family="'Castellar'" font-size="72" rotate="9.615">e</tspan><tspan x="569.475" y="46.258" fill="#FFFFFF" font-family="'Castellar'" font-size="72" rotate="10.753">s</tspan><tspan x="603.116" y="52.677" fill="#FFFFFF" font-family="'Castellar'" font-size="72" rotate="11.867"> </tspan><tspan x="628.268" y="57.992" fill="#FFFFFF" font-family="'Castellar'" font-size="72" rotate="12.835">!</tspan><tspan x="644.906" y="61.755" font-family="'Castellar'" font-size="60" rotate="13.88"> </tspan></text>
</svg>
