<?xml version="1.0" encoding="utf-8"?>
<!-- Generator: Adobe Illustrator 16.0.0, SVG Export Plug-In . SVG Version: 6.00 Build 0)  -->
<!DOCTYPE svg PUBLIC "-//W3C//DTD SVG 1.1//EN" "http://www.w3.org/Graphics/SVG/1.1/DTD/svg11.dtd">
<svg version="1.1" id="Calque_1" xmlns="http://www.w3.org/2000/svg" xmlns:xlink="http://www.w3.org/1999/xlink" x="0px" y="0px"
	 width="1036px" height="269px" viewBox="0 0 1036 269" enable-background="new 0 0 1036 269" xml:space="preserve">
<path fill="#C42127" d="M0,91.981c0,0,130.907-32.153,205.549-24.114l4.592,170.006c0,0-155.025,19.465-208.996,30.951
	l40.196-97.609L0,91.981z"/>
<polygon fill="#681C1D" points="210.141,63.328 137.655,174.662 99.904,196.533 210.141,237.874 "/>
<path fill="#C42127" d="M1035.67,91.858c0,0-130.912-32.153-205.553-24.117l-4.588,170.006c0,0,155.021,19.466,208.993,30.952
	l-40.197-97.607L1035.67,91.858z"/>
<polygon fill="#681C1D" points="825.529,63.205 898.014,174.536 935.768,196.408 825.529,237.748 "/>
<path fill="#ED2324" d="M935.892,196.479c0,0-94.16-34.125-417.991-34.125c-323.835,0-417.995,34.125-417.995,34.125L97.07,48.013
	C97.07,48.013,242.295,0,517.9,0c275.6,0,415.156,48.013,415.156,48.013L935.892,196.479z"/>
<path fill="none" d="M12.359,124.622c226.813-71.107,748.01-63.121,966.43-18.684"/>
<text transform="matrix(0.9982 -0.0601 0.0601 0.9982 303.2637 78.9897)"><tspan x="0" y="0" fill="#FFFFFF" font-family="'Castellar'" font-size="60">A</tspan><tspan x="48.627" y="0.015" fill="#FFFFFF" font-family="'Castellar'" font-size="60" rotate="0.925">C</tspan><tspan x="94.767" y="0.814" fill="#FFFFFF" font-family="'Castellar'" font-size="60" rotate="1.6">S</tspan><tspan x="123.427" y="1.628" fill="#FFFFFF" font-family="'Castellar'" font-size="60" rotate="2.031"> </tspan><tspan x="144.891" y="2.321" fill="#FFFFFF" font-family="'Castellar'" font-size="60" rotate="2.612">V</tspan><tspan x="193.483" y="4.579" fill="#FFFFFF" font-family="'Castellar'" font-size="60" rotate="3.276">E</tspan><tspan x="227.756" y="6.554" fill="#FFFFFF" font-family="'Castellar'" font-size="60" rotate="3.771">S</tspan><tspan x="256.335" y="8.373" fill="#FFFFFF" font-family="'Castellar'" font-size="60" rotate="4.398">O</tspan><tspan x="307.928" y="12.338" fill="#FFFFFF" font-family="'Castellar'" font-size="60" rotate="5.215">U</tspan><tspan x="359.5" y="17.088" fill="#FFFFFF" font-family="'Castellar'" font-size="60" rotate="5.944">L</tspan><tspan x="396.712" y="21.01" fill="#FFFFFF" font-family="'Castellar'" font-size="36" rotate="6.374"> </tspan></text>
<path fill="none" d="M-49.307,204.666c225.261-75.876,746.512-78.89,965.82-39.07"/>
<text transform="matrix(0.9967 -0.0812 0.0812 0.9967 240.5693 152.9072)"><tspan x="0" y="0" fill="#FFFFFF" font-family="'Castellar'" font-size="60">V</tspan><tspan x="48.615" y="-0.007" fill="#FFFFFF" font-family="'Castellar'" font-size="60" rotate="0.978">o</tspan><tspan x="100.377" y="0.881" fill="#FFFFFF" font-family="'Castellar'" font-size="60" rotate="1.897">u</tspan><tspan x="152.13" y="2.663" fill="#FFFFFF" font-family="'Castellar'" font-size="60" rotate="2.567">s</tspan><tspan x="180.768" y="3.96" fill="#FFFFFF" font-family="'Castellar'" font-size="60" rotate="2.972"> </tspan><tspan x="202.252" y="5.062" fill="#FFFFFF" font-family="'Castellar'" font-size="60" rotate="3.37">s</tspan><tspan x="230.84" y="6.682" fill="#FFFFFF" font-family="'Castellar'" font-size="60" rotate="4">o</tspan><tspan x="282.497" y="10.293" fill="#FFFFFF" font-family="'Castellar'" font-size="60" rotate="4.81">u</tspan><tspan x="334.066" y="14.619" fill="#FFFFFF" font-family="'Castellar'" font-size="60" rotate="5.66">h</tspan><tspan x="388.007" y="19.979" fill="#FFFFFF" font-family="'Castellar'" font-size="60" rotate="6.535">a</tspan><tspan x="436.339" y="25.588" fill="#FFFFFF" font-family="'Castellar'" font-size="60" rotate="7.193">i</tspan><tspan x="459.121" y="28.4" fill="#FFFFFF" font-family="'Castellar'" font-size="60" rotate="7.851">t</tspan><tspan x="501.735" y="34.302" fill="#FFFFFF" font-family="'Castellar'" font-size="60" rotate="8.712">e</tspan></text>
</svg>
