<?xml version="1.0" encoding="utf-8"?>
<!-- Generator: Adobe Illustrator 15.1.0, SVG Export Plug-In  -->
<!DOCTYPE svg PUBLIC "-//W3C//DTD SVG 1.1//EN" "http://www.w3.org/Graphics/SVG/1.1/DTD/svg11.dtd" [
	<!ENTITY ns_flows "http://ns.adobe.com/Flows/1.0/">
]>
<svg version="1.1"
	 xmlns="http://www.w3.org/2000/svg" xmlns:xlink="http://www.w3.org/1999/xlink" xmlns:a="http://ns.adobe.com/AdobeSVGViewerExtensions/3.0/"
	 x="0px" y="0px" width="1036px" height="269px" viewBox="0 0 1036 269" enable-background="new 0 0 1036 269" xml:space="preserve"
	>
<defs>
</defs>
<path fill="#C42127" d="M0,91.981c0,0,130.907-32.153,205.549-24.114l4.592,170.006c0,0-155.025,19.465-208.996,30.951
	l40.196-97.609L0,91.981z"/>
<polygon fill="#681C1D" points="210.141,63.328 137.655,174.662 99.904,196.533 210.141,237.874 "/>
<path fill="#C42127" d="M1035.67,91.858c0,0-130.912-32.153-205.553-24.117l-4.588,170.006c0,0,155.021,19.466,208.993,30.952
	l-40.197-97.607L1035.67,91.858z"/>
<polygon fill="#681C1D" points="825.529,63.205 898.014,174.536 935.768,196.408 825.529,237.748 "/>
<path fill="#ED2324" d="M935.892,196.478c0,0-94.161-34.124-417.992-34.124c-323.835,0-417.995,34.124-417.995,34.124L97.07,48.013
	c0,0,145.225-48.013,420.83-48.013C793.5,0,933.057,48.013,933.057,48.013L935.892,196.478z"/>
<path fill="#FFFFFF" d="M311.055,111.449c1.737,2.654,2.725,4.622,2.964,5.9c0.568,3.039-1.434,6.06-6.001,9.064
	c-2.351,1.597-4.303,2.542-5.862,2.833c-1.559,0.291-2.91,0.15-4.05-0.422c-1.143-0.572-2.026-1.213-2.656-1.924
	c-1.083-1.369-5.554-8.022-13.41-19.958l-3.673,0.935l-15.11,2.823l2.532,13.551c0.344,1.84,0.542,3.23,0.593,4.171
	c0.052,0.942-0.131,2.072-0.545,3.391c-0.717,2.368-3.634,4.03-8.749,4.986c-5.597,1.046-9.151,0.18-10.663-2.6
	c-0.733-1.269-1.362-3.302-1.885-6.102l-12.437-66.558c-0.344-1.838-0.542-3.229-0.593-4.171c-0.052-0.941,0.128-2.072,0.545-3.391
	c0.715-2.368,3.631-4.029,8.749-4.986l25.904-4.84c7.034-1.314,14.348-0.032,21.941,3.844c3.66,1.881,6.926,4.747,9.797,8.595
	c2.87,3.85,4.792,8.372,5.762,13.568c1.688,9.036,0.08,17.031-4.826,23.986C301.932,98.054,305.823,103.822,311.055,111.449z
	 M259.29,89.473l15.351-2.868c2.318-0.433,4.471-1.745,6.462-3.938c1.989-2.191,2.656-5.046,1.999-8.565
	c-0.657-3.517-2.314-5.959-4.968-7.325c-2.656-1.365-5.222-1.817-7.7-1.354l-15.11,2.824L259.29,89.473z"/>
<path fill="#FFFFFF" d="M376.086,80.894c0.461,4.98-0.434,8.781-2.682,11.397c-2.25,2.619-4.873,4.065-7.869,4.343l-28.791,2.665
	c0.21,2.269,1.723,4.048,4.538,5.338c2.815,1.292,5.559,1.813,8.231,1.566c4.696-0.435,8.337-1.262,10.919-2.481l1.292-0.61
	c1.861-1.07,3.439-1.666,4.735-1.786c2.591-0.24,4.986,1.376,7.188,4.848c1.254,2.089,1.954,3.904,2.097,5.442
	c0.667,7.209-7.625,11.61-24.875,13.207c-5.994,0.555-11.414,0.015-16.261-1.619c-4.849-1.634-8.726-4.032-11.631-7.194
	c-5.709-6.087-8.939-13.18-9.688-21.28c-0.944-10.204,1.6-18.667,7.635-25.395c6.034-6.725,13.991-10.545,23.873-11.46
	c11.256-1.042,19.884,2.163,25.884,9.612C373.822,71.445,375.625,75.913,376.086,80.894z M337.809,53.867
	c-1.083,0.672-2.271,1.068-3.566,1.188c-2.43,0.225-4.636-1.979-6.616-6.616c-0.829-1.884-1.305-3.513-1.433-4.891
	c-0.127-1.376,0.058-2.456,0.558-3.237c0.632-1.119,2.011-2.104,4.137-2.956l19.471-8.051c2.053-0.76,3.241-1.158,3.565-1.188
	c2.43-0.225,4.595,1.985,6.495,6.627c0.827,1.884,1.303,3.494,1.427,4.83c0.124,1.336-0.065,2.396-0.564,3.177
	c-0.631,1.121-2.01,2.106-4.137,2.956L337.809,53.867z M350.785,86.85c3.077-0.285,4.497-1.722,4.257-4.315
	c-0.172-1.862-1.021-3.294-2.542-4.298c-1.523-1.002-3.601-1.382-6.231-1.139c-2.633,0.244-5.145,1.56-7.538,3.944
	c-2.394,2.387-3.477,4.794-3.252,7.224L350.785,86.85z"/>
<path fill="#FFFFFF" d="M386.855,114.646c-1.584-0.913-2.418-2.424-2.504-4.539c-0.085-2.112,1.327-5.384,4.242-9.818
	c0.837-1.417,2.251-2.167,4.243-2.248c1.991-0.081,4.734,0.806,8.228,2.657c3.494,1.854,6.622,2.723,9.386,2.611
	c4.956-0.201,7.396-1.277,7.317-3.228c-0.063-1.542-2.833-2.571-8.306-3.082c-5.149-0.524-10.307-2.226-15.47-5.111
	c-2.417-1.367-4.461-3.583-6.131-6.65c-1.671-3.064-2.594-6.751-2.769-11.06c-0.521-12.839,8.035-19.618,25.671-20.333
	c5.769-0.234,11.758,0.908,17.965,3.422c2.896,1.186,4.385,2.752,4.464,4.703c0.079,1.95-0.719,4.385-2.39,7.301
	c-1.673,2.918-3.444,4.413-5.312,4.489c-0.976,0.04-2.81-0.497-5.499-1.608c-2.691-1.112-5.581-1.605-8.668-1.48
	c-4.796,0.194-7.156,1.187-7.083,2.974c0.099,2.438,2.925,3.911,8.482,4.417c5.387,0.352,10.649,1.686,15.791,4
	c2.402,1.043,4.454,2.933,6.152,5.672c1.699,2.74,2.634,6.224,2.805,10.448c0.171,4.227-0.475,7.854-1.939,10.884
	c-1.464,3.032-3.59,5.335-6.374,6.913c-5.1,2.731-11.57,4.255-19.412,4.573C401.901,120.873,394.271,118.905,386.855,114.646z"/>
<path fill="#FFFFFF" d="M473.991,117.759c-8.216,0.031-15.039-3.054-20.47-9.255c-5.434-6.202-8.165-13.774-8.199-22.722
	l-0.081-21.35c-0.008-1.952,0.048-3.374,0.167-4.271c0.119-0.895,0.459-1.954,1.025-3.176c1.13-2.201,4.298-3.311,9.503-3.33
	c5.692-0.021,9.034,1.512,10.021,4.598c0.493,1.3,0.745,3.373,0.756,6.219l0.081,21.35c0.012,3.336,0.977,5.934,2.896,7.797
	c1.917,1.865,4.482,2.789,7.696,2.777c3.212-0.012,5.811-0.998,7.797-2.958c1.985-1.959,2.972-4.525,2.96-7.697l-0.082-21.594
	c-0.007-1.87,0.049-3.273,0.167-4.209c0.118-0.935,0.499-2.015,1.146-3.237c1.048-2.118,4.176-3.188,9.382-3.208
	c5.124-0.019,8.258,1.067,9.407,3.259c0.572,1.218,0.923,2.295,1.049,3.229c0.125,0.936,0.192,2.338,0.199,4.208l0.164,43.188
	c0.007,1.79-0.049,3.153-0.167,4.087c-0.119,0.937-0.501,1.975-1.147,3.115c-1.212,2.121-4.34,3.188-9.382,3.208
	c-4.962,0.019-8.016-0.946-9.161-2.894c-0.819-1.379-1.232-3.045-1.239-4.998c-0.324,0.571-1.053,1.388-2.187,2.449
	c-1.136,1.062-2.23,1.96-3.284,2.696C480.25,116.841,477.243,117.747,473.991,117.759z"/>
<path fill="#FFFFFF" d="M520.707,34.406c0.043-1.87,0.135-3.271,0.277-4.204c0.143-0.931,0.512-2.002,1.109-3.209
	c1.188-2.17,4.383-3.197,9.588-3.08c4.959,0.111,8.025,1.278,9.195,3.501c0.623,1.234,0.984,2.34,1.086,3.319
	c0.1,0.979,0.129,2.403,0.086,4.273l-1.264,56.472c-0.066,2.927,0.137,4.783,0.607,5.566c0.471,0.785,1.539,1.194,3.207,1.231
	c1.664,0.037,2.783,0.124,3.35,0.258c0.564,0.135,1.248,0.497,2.051,1.083c1.602,1.094,2.35,4,2.244,8.714
	c-0.113,5.123-0.998,8.236-2.648,9.337c-2.148,1.417-7.195,1.547-15.141,0.393c-6.244-0.952-10.264-3.116-12.059-6.493
	c-2.188-4.034-3.184-10.402-2.988-19.104L520.707,34.406z"/>
<path fill="#FFFFFF" d="M592.338,77.543l-7.908-0.757l-0.572,16.826c-0.074,2.195,0.217,3.792,0.875,4.791s1.941,1.531,3.854,1.596
	c1.908,0.065,3.369,0.175,4.383,0.332c1.012,0.156,2.074,0.58,3.191,1.268c1.834,1.121,2.676,3.875,2.527,8.265
	c-0.174,5.121-1.42,8.212-3.732,9.272c-1.24,0.528-2.33,0.836-3.268,0.927c-0.939,0.09-2.303,0.105-4.09,0.044
	c-8.455-0.287-14.811-2.414-19.07-6.385c-4.26-3.969-6.236-10.506-5.926-19.61l0.613-18.046c-1.555,0.191-3.225,0.257-5.012,0.196
	c-1.789-0.061-3.25-0.801-4.381-2.224c-1.133-1.421-1.641-3.798-1.527-7.132c0.113-3.332,0.396-5.743,0.855-7.234
	c0.457-1.489,1.063-2.546,1.816-3.173c1.336-1.011,2.98-1.486,4.932-1.419l4.008,0.624l0.426-12.559
	c0.063-1.869,0.172-3.248,0.324-4.139c0.152-0.89,0.57-1.852,1.258-2.887c1.123-1.995,4.289-2.906,9.492-2.729
	c5.525,0.188,8.768,1.805,9.723,4.847c0.361,1.315,0.494,3.395,0.398,6.239l-0.406,11.949c3.588-0.203,6.297-0.274,8.125-0.212
	s3.209,0.17,4.139,0.324s1.996,0.577,3.193,1.268c2.076,1.129,3.027,4.295,2.85,9.496c-0.174,5.121-1.377,8.214-3.609,9.277
	c-1.238,0.528-2.33,0.836-3.268,0.927C595.611,77.594,594.207,77.607,592.338,77.543z"/>
<path fill="#FFFFFF" d="M652.811,65.789c0.752-4.519,4.09-6.607,10.018-6.265c3.166,0.183,5.506,0.563,7.021,1.139
	c1.514,0.577,2.541,1.491,3.08,2.745c0.539,1.253,0.842,2.352,0.91,3.291c0.066,0.941,0.047,2.346-0.061,4.212l-2.465,42.629
	c-0.109,1.869-0.25,3.266-0.426,4.191c-0.176,0.927-0.584,1.982-1.223,3.168c-1.26,2.046-4.102,2.94-8.525,2.684
	c-4.428-0.256-7.357-0.976-8.797-2.158c-1.439-1.183-2.219-2.836-2.34-4.962c-3.254,4.131-8.393,5.991-15.416,5.585
	c-7.023-0.406-13.354-3.99-18.992-10.752c-5.639-6.761-8.211-14.385-7.721-22.871c0.492-8.484,3.945-15.739,10.363-21.764
	c6.416-6.024,13.238-8.828,20.467-8.41c2.76,0.16,5.248,0.792,7.467,1.898c2.217,1.105,3.746,2.11,4.592,3.015
	C651.607,64.069,652.289,64.945,652.811,65.789z M629.18,89.841c-0.154,2.68,0.76,5.157,2.748,7.43
	c1.986,2.274,4.48,3.498,7.486,3.671c3.004,0.174,5.563-0.778,7.68-2.855c2.117-2.078,3.252-4.435,3.404-7.075
	c0.152-2.638-0.662-5.149-2.438-7.534c-1.777-2.382-4.268-3.668-7.475-3.854c-3.209-0.186-5.873,0.802-7.992,2.96
	C630.471,84.743,629.334,87.161,629.18,89.841z"/>
<path fill="#FFFFFF" d="M720.844,86.179l-7.848-1.24l-1.604,16.759c-0.209,2.186-0.016,3.798,0.58,4.835
	c0.594,1.037,1.844,1.647,3.748,1.829c1.9,0.182,3.352,0.382,4.354,0.6c1,0.218,2.035,0.706,3.107,1.461
	c1.762,1.231,2.434,4.032,2.016,8.404c-0.486,5.101-1.92,8.11-4.293,9.026c-1.27,0.451-2.377,0.692-3.318,0.725
	c-0.943,0.033-2.305-0.037-4.086-0.207c-8.42-0.805-14.635-3.318-18.643-7.542c-4.008-4.223-5.578-10.868-4.711-19.937l1.717-17.974
	c-1.563,0.096-3.234,0.058-5.014-0.112c-1.781-0.17-3.193-0.999-4.234-2.488c-1.045-1.488-1.406-3.892-1.088-7.212
	c0.316-3.319,0.748-5.708,1.297-7.168c0.549-1.458,1.217-2.477,2.008-3.056c1.395-0.928,3.066-1.3,5.01-1.115l3.961,0.869
	l1.195-12.509c0.178-1.862,0.371-3.232,0.578-4.112c0.205-0.878,0.682-1.813,1.432-2.805c1.244-1.922,4.459-2.638,9.643-2.142
	c5.504,0.526,8.641,2.339,9.406,5.434c0.281,1.334,0.287,3.418,0.016,6.251l-1.139,11.902c3.594,0.018,6.303,0.112,8.123,0.286
	c1.822,0.174,3.191,0.367,4.111,0.577s1.957,0.698,3.109,1.461c2.004,1.254,2.758,4.473,2.264,9.653
	c-0.488,5.101-1.879,8.114-4.174,9.038c-1.268,0.451-2.375,0.692-3.316,0.725C724.107,86.43,722.705,86.357,720.844,86.179z"/>
<path fill="#FFFFFF" d="M734.289,124.648c-1.379-1.202-1.904-2.846-1.58-4.937c0.324-2.089,2.344-5.026,6.061-8.813
	c1.096-1.229,2.629-1.69,4.598-1.385c1.969,0.306,4.488,1.706,7.559,4.199c3.07,2.495,5.971,3.952,8.703,4.376
	c4.902,0.761,7.504,0.178,7.803-1.751c0.238-1.526-2.281-3.071-7.553-4.63c-4.949-1.51-9.68-4.177-14.188-8.006
	c-2.107-1.809-3.684-4.378-4.729-7.71c-1.049-3.33-1.24-7.125-0.578-11.386c1.973-12.698,11.678-17.693,29.119-14.984
	c5.705,0.886,11.361,3.165,16.965,6.833c2.611,1.723,3.77,3.548,3.469,5.478c-0.299,1.929-1.553,4.163-3.756,6.701
	c-2.207,2.54-4.232,3.664-6.08,3.376c-0.965-0.149-2.66-1.03-5.084-2.642c-2.426-1.611-5.166-2.654-8.219-3.128
	c-4.742-0.736-7.25-0.219-7.525,1.547c-0.373,2.411,2.115,4.403,7.469,5.975c5.217,1.387,10.121,3.714,14.719,6.978
	c2.156,1.488,3.803,3.739,4.939,6.755c1.137,3.017,1.379,6.615,0.73,10.793c-0.648,4.18-1.984,7.614-4.008,10.304
	c-2.023,2.691-4.555,4.54-7.592,5.55c-5.531,1.693-12.174,1.936-19.928,0.731C747.846,133.668,740.742,130.262,734.289,124.648z"/>
</svg>
