<?xml version="1.0" encoding="utf-8"?>
<!-- Generator: Adobe Illustrator 16.0.0, SVG Export Plug-In . SVG Version: 6.00 Build 0)  -->
<!DOCTYPE svg PUBLIC "-//W3C//DTD SVG 1.1//EN" "http://www.w3.org/Graphics/SVG/1.1/DTD/svg11.dtd">
<svg version="1.1" id="Calque_2" xmlns="http://www.w3.org/2000/svg" xmlns:xlink="http://www.w3.org/1999/xlink" x="0px" y="0px"
	 width="169.5px" height="177px" viewBox="0 0 169.5 177" enable-background="new 0 0 169.5 177" xml:space="preserve">
<g id="XMLID_1_">
	<g>
		<polygon fill="#EFAB00" points="153.92,15.75 130.05,34.75 121.25,41.75 121.25,62.75 121.25,71.75 106.25,71.75 106.25,62.75 
			106.25,41.75 96.19,34.75 71.17,17.33 88.25,0.25 113.75,34.75 138.42,0.25 		"/>
		<rect x="106.25" y="71.75" fill="#EFAB00" width="15" height="105"/>
		<rect x="121.25" y="62.75" fill="#490808" width="29" height="9"/>
		<rect x="19.25" y="62.75" fill="#490808" width="87" height="9"/>
		<polygon fill="#CC2323" points="169.25,34.75 169.25,62.75 150.25,62.75 121.25,62.75 121.25,41.75 130.05,34.75 		"/>
		<polygon fill="#CC2323" points="106.25,41.75 106.25,62.75 19.25,62.75 0.25,62.75 0.25,34.75 96.19,34.75 		"/>
		<rect x="121.25" y="71.75" fill="#9B0E0E" width="29" height="105"/>
		<rect x="19.25" y="71.75" fill="#9B0E0E" width="87" height="105"/>
	</g>
	<g>
	</g>
</g>
</svg>
