<?xml version="1.0" encoding="utf-8"?>
<!-- Generator: Adobe Illustrator 16.0.0, SVG Export Plug-In . SVG Version: 6.00 Build 0)  -->
<!DOCTYPE svg PUBLIC "-//W3C//DTD SVG 1.1//EN" "http://www.w3.org/Graphics/SVG/1.1/DTD/svg11.dtd">
<svg version="1.1" id="Calque_1" xmlns="http://www.w3.org/2000/svg" xmlns:xlink="http://www.w3.org/1999/xlink" x="0px" y="0px"
	 width="195.128px" height="201.816px" viewBox="0 0 195.128 201.816" enable-background="new 0 0 195.128 201.816"
	 xml:space="preserve">
<ellipse opacity="0.3" fill="#542E15" cx="97.564" cy="172.778" rx="97.564" ry="29.038"/>
<g id="XMLID_1_">
	<g>
		<polygon fill="#4B67EF" points="181.734,34.75 181.734,62.75 162.734,62.75 133.734,62.75 133.734,41.75 142.534,34.75 		"/>
		<rect x="133.734" y="71.75" fill="#1C2EAF" width="29" height="105"/>
		<rect x="133.734" y="62.75" fill="#0F1B47" width="29" height="9"/>
		<rect x="118.734" y="71.75" fill="#F92D40" width="15" height="105"/>
		<polygon fill="#F92D40" points="108.674,34.75 83.654,17.33 100.734,0.25 126.234,34.75 150.904,0.25 166.404,15.75 
			142.534,34.75 133.734,41.75 133.734,62.75 133.734,71.75 118.734,71.75 118.734,62.75 118.734,41.75 		"/>
		<polygon fill="#4B67EF" points="12.734,34.75 108.674,34.75 118.734,41.75 118.734,62.75 31.734,62.75 12.734,62.75 		"/>
		<rect x="31.734" y="71.75" fill="#1C2EAF" width="87" height="105"/>
		<rect x="31.734" y="62.75" fill="#0F1B47" width="87" height="9"/>
	</g>
	<g>
	</g>
</g>
</svg>
