<?xml version="1.0" encoding="utf-8"?>
<!-- Generator: Adobe Illustrator 16.0.0, SVG Export Plug-In . SVG Version: 6.00 Build 0)  -->
<!DOCTYPE svg PUBLIC "-//W3C//DTD SVG 1.1//EN" "http://www.w3.org/Graphics/SVG/1.1/DTD/svg11.dtd">
<svg version="1.1" xmlns="http://www.w3.org/2000/svg" xmlns:xlink="http://www.w3.org/1999/xlink" x="0px" y="0px"
	 width="597.05px" height="567.14px" viewBox="0 0 597.05 567.14" enable-background="new 0 0 597.05 567.14" xml:space="preserve">
<g id="Calque_6" display="none">
	<ellipse display="inline" opacity="0.7" fill="#542E15" cx="294.46" cy="531.14" rx="120.955" ry="36"/>
</g>
<g id="Pot_Sapin" display="none">
	<g display="inline">
		<g id="XMLID_5_">
			<g>
				<path fill="#7F4218" d="M350.96,421.4l11.5,113.74c-68.33,33-136,0-136,0L350.96,421.4z"/>
				<polygon fill="#7F4218" points="350.96,421.14 350.96,421.4 226.46,535.14 244.88,421.4 245.13,421.14 				"/>
			</g>
			<g>
			</g>
		</g>
	</g>
</g>
<g id="Part4_Sapin" display="none">
	<g display="inline">
		<g id="XMLID_4_">
			<g>
				<path fill="#5C844E" d="M495.59,349.7c0,0,25.03,40.84,65.87,63.24c0,0-94.85,25.03-131.74-21.08c0,0-25.48,55.169,18,80.2
					c0,0-54.89-2.479-98.36-38.04c0,0-13.17,51.37-50.72,72.45V102.25c0,0,69.93,204.52,298.16,204.52
					C596.8,306.77,552.24,361.56,495.59,349.7z"/>
				<path fill="#5C844E" d="M298.4,102.25v404.22c-37.54-21.08-50.71-72.45-50.71-72.45c-43.48,35.561-98.36,38.04-98.36,38.04
					c43.47-25.03,17.99-80.2,17.99-80.2c-36.88,46.11-131.74,21.08-131.74,21.08c40.84-22.4,65.87-63.24,65.87-63.24
					c-56.64,11.86-101.2-42.93-101.2-42.93C228.48,306.77,298.4,102.25,298.4,102.25z"/>
			</g>
			<g>
			</g>
		</g>
	</g>
</g>
<g id="Part3_Sapin" display="none">
	<g display="inline">
		<g id="XMLID_2_">
			<g>
				<path fill="#91CE80" d="M462.11,263.5c0,0,20.86,34.04,54.9,52.7c0,0-79.06,20.87-109.8-17.57c0,0-21.24,45.99,15,66.85
					c0,0-45.75-2.06-81.98-31.71c0,0-10.98,42.82-42.28,60.39V57.25c0,0,58.29,170.46,248.51,170.46
					C546.46,227.71,509.33,273.38,462.11,263.5z"/>
				<path fill="#91CE80" d="M297.76,57.25v336.91c-31.3-17.57-42.28-60.39-42.28-60.39c-36.23,29.65-81.98,31.71-81.98,31.71
					c36.24-20.86,15-66.85,15-66.85C157.76,337.07,78.7,316.2,78.7,316.2c34.04-18.66,54.9-52.7,54.9-52.7
					c-47.21,9.88-84.35-35.79-84.35-35.79C239.47,227.71,297.76,57.25,297.76,57.25z"/>
			</g>
			<g>
			</g>
		</g>
	</g>
</g>
<g id="PArt2_Sapin" display="none">
	<g display="inline">
		<g id="XMLID_3_">
			<g>
				<path fill="#5C844E" d="M428.31,186.64c0,0,16.53,26.96,43.49,41.75c0,0-62.63,16.52-86.98-13.92c0,0-16.83,36.43,11.88,52.95
					c0,0-36.24-1.63-64.94-25.12c0,0-8.7,33.93-33.49,47.85V23.25c0,0,46.17,135.04,196.86,135.04
					C495.13,158.29,465.71,194.46,428.31,186.64z"/>
				<path fill="#5C844E" d="M298.11,23.25v266.9c-24.79-13.92-33.49-47.85-33.49-47.85c-28.7,23.49-64.94,25.12-64.94,25.12
					c28.71-16.52,11.88-52.95,11.88-52.95c-24.35,30.44-86.98,13.92-86.98,13.92c26.96-14.79,43.49-41.75,43.49-41.75
					c-37.4,7.82-66.82-28.35-66.82-28.35C251.94,158.29,298.11,23.25,298.11,23.25z"/>
			</g>
			<g>
			</g>
		</g>
	</g>
</g>
<g id="Part1_Sapin" display="none">
	<g display="inline">
		<g id="XMLID_1_">
			<g>
				<path fill="#91CE80" d="M397.92,125.47c0,0,12.66,20.67,33.33,32c0,0-48,12.67-66.67-10.66c0,0-12.89,27.92,9.11,40.58
					c0,0-27.77-1.25-49.77-19.25c0,0-6.67,26-25.67,36.67V0.25c0,0,35.39,103.5,150.88,103.5
					C449.13,103.75,426.58,131.47,397.92,125.47z"/>
				<path fill="#91CE80" d="M298.13,0.25v204.56c-19-10.67-25.67-36.67-25.67-36.67c-22,18-49.77,19.25-49.77,19.25
					c22-12.66,9.11-40.58,9.11-40.58c-18.67,23.33-66.67,10.66-66.67,10.66c20.67-11.33,33.33-32,33.33-32
					c-28.66,6-51.21-21.72-51.21-21.72C262.74,103.75,298.13,0.25,298.13,0.25z"/>
			</g>
			<g>
			</g>
		</g>
	</g>
</g>
<g id="Calque_7" display="none">
	
		<circle display="inline" fill="none" stroke="#ED1C24" stroke-width="0.7984" stroke-miterlimit="10" cx="364.411" cy="105.984" r="3.094"/>
	<rect x="360.13" y="105.14" display="inline" fill="#FFFFFF" width="8" height="7"/>
	<g display="inline">
		<circle fill="#ED1414" cx="364.243" cy="125.509" r="16.887"/>
		<g>
			<defs>
				<circle id="SVGID_1_" cx="364.243" cy="125.509" r="16.887"/>
			</defs>
			<clipPath id="SVGID_2_">
				<use xlink:href="#SVGID_1_"  overflow="visible"/>
			</clipPath>
			<rect x="349.13" y="115.14" clip-path="url(#SVGID_2_)" fill="#FFFFFF" width="32" height="1"/>
			<rect x="346.13" y="119.14" clip-path="url(#SVGID_2_)" fill="#FFFFFF" width="36" height="1"/>
			<rect x="345.13" y="123.14" clip-path="url(#SVGID_2_)" fill="#FFFFFF" width="38" height="1"/>
			<rect x="346.13" y="127.14" clip-path="url(#SVGID_2_)" fill="#FFFFFF" width="36" height="1"/>
			<rect x="345.13" y="131.14" clip-path="url(#SVGID_2_)" fill="#FFFFFF" width="36" height="1"/>
			<rect x="346.13" y="135.14" clip-path="url(#SVGID_2_)" fill="#FFFFFF" width="36" height="1"/>
			<rect x="345.13" y="139.14" clip-path="url(#SVGID_2_)" fill="#FFFFFF" width="38" height="1"/>
			<polygon clip-path="url(#SVGID_2_)" fill="#FFFFFF" points="350.13,112.14 350.13,111.14 372.786,111.14 375.13,111.14 
				375.13,112.14 374.52,112.14 			"/>
		</g>
	</g>
</g>
<g id="Calque_8">
	<path fill="none" stroke="#ED1C24" stroke-width="3.0598" stroke-miterlimit="10" d="M115.276,286.849
		c104.467,104.467,262.223,101.549,364.479-0.708"/>
</g>
</svg>
