<?xml version="1.0" encoding="utf-8"?>
<!-- Generator: Adobe Illustrator 16.0.0, SVG Export Plug-In . SVG Version: 6.00 Build 0)  -->
<!DOCTYPE svg PUBLIC "-//W3C//DTD SVG 1.1//EN" "http://www.w3.org/Graphics/SVG/1.1/DTD/svg11.dtd">
<svg version="1.1" xmlns="http://www.w3.org/2000/svg" xmlns:xlink="http://www.w3.org/1999/xlink" x="0px" y="0px"
	 width="597.05px" height="687.833px" viewBox="0 0 597.05 687.833" enable-background="new 0 0 597.05 687.833"
	 xml:space="preserve">
<g id="Ombre_Sapin">
	<ellipse opacity="0.3" fill="#542E15" cx="294.46" cy="651.833" rx="120.955" ry="36"/>
</g>
<g id="Pot_Sapin">
	<g>
		<g id="XMLID_5_">
			<g>
				<path fill="#7F4218" d="M353.626,541.093l11.5,113.741c-68.33,33-136,0-136,0l18.42-113.741l0.25-0.26h105.83V541.093z"/>
			</g>
			<g>
			</g>
		</g>
	</g>
</g>
<g id="Part4_Sapin">
	<g>
		<g id="XMLID_4_">
			<g>
				<path fill="#5C844E" d="M349.36,554.713c0,0-13.17,51.37-50.72,72.45h-0.24c-37.54-21.08-50.71-72.45-50.71-72.45
					c-43.48,35.561-98.36,38.04-98.36,38.04c43.47-25.03,17.99-80.2,17.99-80.2c-36.88,46.11-131.74,21.08-131.74,21.08
					c40.84-22.4,65.87-63.24,65.87-63.24c-56.64,11.86-101.2-42.93-101.2-42.93c228.23,0,298.15-204.52,298.15-204.52h0.24
					c0,0,69.93,204.52,298.16,204.52c0,0-44.56,54.79-101.21,42.93c0,0,25.03,40.84,65.87,63.24c0,0-94.85,25.03-131.74-21.08
					c0,0-25.48,55.169,18,80.2C447.72,592.753,392.83,590.274,349.36,554.713z"/>
			</g>
			<g>
			</g>
		</g>
	</g>
</g>
<g id="Part3_Sapin">
	<g>
		<g id="XMLID_2_">
			<g>
				<path fill="#91CE80" d="M297.95,177.943c0,0,58.29,170.46,248.51,170.46c0,0-37.13,45.67-84.35,35.79c0,0,20.86,34.04,54.9,52.7
					c0,0-79.06,20.87-109.8-17.57c0,0-21.24,45.99,15,66.85c0,0-45.75-2.06-81.98-31.71c0,0-10.98,42.82-42.28,60.39h-0.19
					c-31.3-17.57-42.28-60.39-42.28-60.39c-36.23,29.65-81.98,31.71-81.98,31.71c36.24-20.86,15-66.85,15-66.85
					c-30.74,38.44-109.8,17.57-109.8,17.57c34.04-18.66,54.9-52.7,54.9-52.7c-47.21,9.88-84.35-35.79-84.35-35.79
					c190.22,0,248.51-170.46,248.51-170.46H297.95z"/>
			</g>
			<g>
			</g>
		</g>
	</g>
</g>
<g id="PArt2_Sapin">
	<g>
		<g id="XMLID_3_">
			<g>
				<path fill="#5C844E" d="M298.27,143.943c0,0,46.17,135.04,196.86,135.04c0,0-29.42,36.17-66.82,28.35
					c0,0,16.53,26.96,43.49,41.75c0,0-62.63,16.52-86.98-13.92c0,0-16.83,36.43,11.88,52.95c0,0-36.24-1.63-64.94-25.12
					c0,0-8.7,33.93-33.49,47.85h-0.16c-24.79-13.92-33.49-47.85-33.49-47.85c-28.7,23.49-64.94,25.12-64.94,25.12
					c28.71-16.52,11.88-52.95,11.88-52.95c-24.35,30.44-86.98,13.92-86.98,13.92c26.96-14.79,43.49-41.75,43.49-41.75
					c-37.4,7.82-66.82-28.35-66.82-28.35c150.69,0,196.86-135.04,196.86-135.04H298.27z"/>
			</g>
			<g>
			</g>
		</g>
	</g>
</g>
<g id="Part1_Sapin">
	<g id="XMLID_1_">
		<g>
			<path fill="#91CE80" d="M397.753,231.497c0,0,12.66,20.67,33.33,32c0,0-48,12.67-66.67-10.66c0,0-12.89,27.92,9.11,40.58
				c0,0-27.77-1.25-49.77-19.25c0,0-6.67,26-25.67,36.67l-0.17,0.05c-19-10.67-25.67-36.67-25.67-36.67
				c-22,18-49.77,19.25-49.77,19.25c22-12.66,9.11-40.58,9.11-40.58c-18.67,23.33-66.67,10.66-66.67,10.66
				c20.67-11.33,33.33-32,33.33-32c-28.66,6-51.21-21.72-51.21-21.72c115.49,0,150.88-103.5,150.88-103.5l0.17-0.05
				c0,0,35.39,103.5,150.88,103.5C448.963,209.776,426.413,237.497,397.753,231.497z"/>
		</g>
		<g>
		</g>
	</g>
</g>
<g id="Boule">
	<circle fill="none" stroke="#ED1C24" stroke-width="0.7984" stroke-miterlimit="10" cx="364.411" cy="226.677" r="3.094"/>
	<rect x="360.13" y="225.833" fill="#FFFFFF" width="8" height="7"/>
	<g>
		<circle fill="#ED1414" cx="364.243" cy="246.202" r="16.887"/>
		<g>
			<defs>
				<circle id="SVGID_1_" cx="364.243" cy="246.202" r="16.887"/>
			</defs>
			<clipPath id="SVGID_2_">
				<use xlink:href="#SVGID_1_"  overflow="visible"/>
			</clipPath>
			<rect x="349.13" y="235.833" clip-path="url(#SVGID_2_)" fill="#FFFFFF" width="32" height="1"/>
			<rect x="346.13" y="239.833" clip-path="url(#SVGID_2_)" fill="#FFFFFF" width="36" height="1"/>
			<rect x="345.13" y="243.833" clip-path="url(#SVGID_2_)" fill="#FFFFFF" width="38" height="1"/>
			<rect x="346.13" y="247.833" clip-path="url(#SVGID_2_)" fill="#FFFFFF" width="36" height="1"/>
			<rect x="345.13" y="251.833" clip-path="url(#SVGID_2_)" fill="#FFFFFF" width="36" height="1"/>
			<rect x="346.13" y="255.833" clip-path="url(#SVGID_2_)" fill="#FFFFFF" width="36" height="1"/>
			<rect x="345.13" y="259.833" clip-path="url(#SVGID_2_)" fill="#FFFFFF" width="38" height="1"/>
			<polygon clip-path="url(#SVGID_2_)" fill="#FFFFFF" points="350.13,232.833 350.13,231.833 372.786,231.833 375.13,231.833 
				375.13,232.833 374.52,232.833 			"/>
		</g>
	</g>
</g>
<g id="Boule2">
	<g>
		<circle fill="none" stroke="#ED1C24" stroke-width="0.7984" stroke-miterlimit="10" cx="186.411" cy="268.677" r="3.094"/>
		<rect x="182.13" y="267.833" fill="#FFFFFF" width="8" height="7"/>
		<g>
			<circle fill="#ED1414" cx="186.243" cy="288.202" r="16.887"/>
			<g>
				<defs>
					<circle id="SVGID_3_" cx="186.243" cy="288.202" r="16.887"/>
				</defs>
				<clipPath id="SVGID_4_">
					<use xlink:href="#SVGID_3_"  overflow="visible"/>
				</clipPath>
				<rect x="171.13" y="277.833" clip-path="url(#SVGID_4_)" fill="#FFFFFF" width="32" height="1"/>
				<rect x="168.13" y="281.833" clip-path="url(#SVGID_4_)" fill="#FFFFFF" width="36" height="1"/>
				<rect x="167.13" y="285.833" clip-path="url(#SVGID_4_)" fill="#FFFFFF" width="38" height="1"/>
				<rect x="168.13" y="289.833" clip-path="url(#SVGID_4_)" fill="#FFFFFF" width="36" height="1"/>
				<rect x="167.13" y="293.833" clip-path="url(#SVGID_4_)" fill="#FFFFFF" width="36" height="1"/>
				<rect x="168.13" y="297.833" clip-path="url(#SVGID_4_)" fill="#FFFFFF" width="36" height="1"/>
				<rect x="167.13" y="301.833" clip-path="url(#SVGID_4_)" fill="#FFFFFF" width="38" height="1"/>
				<polygon clip-path="url(#SVGID_4_)" fill="#FFFFFF" points="172.13,274.833 172.13,273.833 194.786,273.833 197.13,273.833 
					197.13,274.833 196.52,274.833 				"/>
			</g>
		</g>
	</g>
</g>
<g id="Boule3">
	<g>
		<circle fill="none" stroke="#ED1C24" stroke-width="0.7984" stroke-miterlimit="10" cx="341.411" cy="392.677" r="3.094"/>
		<rect x="337.13" y="391.833" fill="#FFFFFF" width="8" height="7"/>
		<g>
			<circle fill="#ED1414" cx="341.243" cy="412.202" r="16.887"/>
			<g>
				<defs>
					<circle id="SVGID_5_" cx="341.243" cy="412.202" r="16.887"/>
				</defs>
				<clipPath id="SVGID_6_">
					<use xlink:href="#SVGID_5_"  overflow="visible"/>
				</clipPath>
				<rect x="326.13" y="401.833" clip-path="url(#SVGID_6_)" fill="#FFFFFF" width="32" height="1"/>
				<rect x="323.13" y="405.833" clip-path="url(#SVGID_6_)" fill="#FFFFFF" width="36" height="1"/>
				<rect x="322.13" y="409.833" clip-path="url(#SVGID_6_)" fill="#FFFFFF" width="38" height="1"/>
				<rect x="323.13" y="413.833" clip-path="url(#SVGID_6_)" fill="#FFFFFF" width="36" height="1"/>
				<rect x="322.13" y="417.833" clip-path="url(#SVGID_6_)" fill="#FFFFFF" width="36" height="1"/>
				<rect x="323.13" y="421.833" clip-path="url(#SVGID_6_)" fill="#FFFFFF" width="36" height="1"/>
				<rect x="322.13" y="425.833" clip-path="url(#SVGID_6_)" fill="#FFFFFF" width="38" height="1"/>
				<polygon clip-path="url(#SVGID_6_)" fill="#FFFFFF" points="327.13,398.833 327.13,397.833 349.786,397.833 352.13,397.833 
					352.13,398.833 351.52,398.833 				"/>
			</g>
		</g>
	</g>
</g>
<g id="Boule3_-_copie">
	<g>
		<circle fill="none" stroke="#ED1C24" stroke-width="0.7984" stroke-miterlimit="10" cx="223.411" cy="478.677" r="3.094"/>
		<rect x="219.13" y="477.833" fill="#FFFFFF" width="8" height="7"/>
		<g>
			<circle fill="#ED1414" cx="223.243" cy="498.202" r="16.887"/>
			<g>
				<defs>
					<circle id="SVGID_7_" cx="223.243" cy="498.202" r="16.887"/>
				</defs>
				<clipPath id="SVGID_8_">
					<use xlink:href="#SVGID_7_"  overflow="visible"/>
				</clipPath>
				<rect x="208.13" y="487.833" clip-path="url(#SVGID_8_)" fill="#FFFFFF" width="32" height="1"/>
				<rect x="205.13" y="491.833" clip-path="url(#SVGID_8_)" fill="#FFFFFF" width="36" height="1"/>
				<rect x="204.13" y="495.833" clip-path="url(#SVGID_8_)" fill="#FFFFFF" width="38" height="1"/>
				<rect x="205.13" y="499.833" clip-path="url(#SVGID_8_)" fill="#FFFFFF" width="36" height="1"/>
				<rect x="204.13" y="503.833" clip-path="url(#SVGID_8_)" fill="#FFFFFF" width="36" height="1"/>
				<rect x="205.13" y="507.833" clip-path="url(#SVGID_8_)" fill="#FFFFFF" width="36" height="1"/>
				<rect x="204.13" y="511.833" clip-path="url(#SVGID_8_)" fill="#FFFFFF" width="38" height="1"/>
				<polygon clip-path="url(#SVGID_8_)" fill="#FFFFFF" points="209.13,484.833 209.13,483.833 231.786,483.833 234.13,483.833 
					234.13,484.833 233.52,484.833 				"/>
			</g>
		</g>
	</g>
</g>
<g id="Calque_14">
	<polygon fill="#FBB03B" points="263.757,141.907 267.952,103.003 239.455,79.022 276.544,72.571 291.752,36.477 310.477,70.323 
		348.377,73.067 323.225,100.428 331.075,138.227 297.548,122.313 	"/>
</g>
<g id="Guirlande_3">
	<path fill="none" stroke="#F4455A" stroke-width="3.0598" stroke-miterlimit="10" d="M115.276,407.542
		c104.467,104.467,262.223,101.549,364.479-0.708"/>
</g>
<g id="Guirlande2">
	<path fill="none" stroke="#F4455A" stroke-width="3.0598" stroke-miterlimit="10" d="M149.349,330.208
		c103.115,89.958,209.781,77.958,298.156,0.458"/>
</g>
<g id="Guirlande1">
	<path fill="none" stroke="#F4455A" stroke-width="3.0598" stroke-miterlimit="10" d="M185.109,262.729
		c98.021,54.104,142.021,49.438,226.396-0.063"/>
</g>
<g id="haloetoile">
	<g>
		
			<circle fill="none" stroke="#F4455A" stroke-width="7" stroke-linecap="round" stroke-miterlimit="10" stroke-dasharray="1.0206,24.494" cx="296.797" cy="92.833" r="89.333"/>
	</g>
</g>
<g id="boulej">
	<circle fill="#FBB03B" stroke="#F4455A" stroke-width="2" stroke-miterlimit="10" cx="263.463" cy="311.499" r="13.333"/>
</g>
<g id="boulej2">
	<circle fill="#FBB03B" stroke="#F4455A" stroke-width="2" stroke-miterlimit="10" cx="344.463" cy="310.499" r="13.333"/>
</g>
<g id="boulej3">
	<circle fill="#FBB03B" stroke="#F4455A" stroke-width="2" stroke-miterlimit="10" cx="431.463" cy="360.499" r="13.333"/>
</g>
<g id="boulej4">
	<circle fill="#FBB03B" stroke="#F4455A" stroke-width="2" stroke-miterlimit="10" cx="151.463" cy="350.499" r="13.333"/>
</g>
<g id="boulej5">
	<circle fill="#FBB03B" stroke="#F4455A" stroke-width="2" stroke-miterlimit="10" cx="243.463" cy="398.499" r="13.333"/>
</g>
<g id="boulej6">
	<circle fill="#FBB03B" stroke="#F4455A" stroke-width="2" stroke-miterlimit="10" cx="152.463" cy="455.499" r="13.333"/>
</g>
<g id="boulej7">
	<circle fill="#FBB03B" stroke="#F4455A" stroke-width="2" stroke-miterlimit="10" cx="308.463" cy="498.499" r="13.333"/>
</g>
<g id="boulej8">
	<circle fill="#FBB03B" stroke="#F4455A" stroke-width="2" stroke-miterlimit="10" cx="407.463" cy="473.499" r="13.333"/>
</g>
<g id="boulej9">
	<circle fill="#FBB03B" stroke="#F4455A" stroke-width="2" stroke-miterlimit="10" cx="484.463" cy="420.499" r="13.333"/>
</g>
<g id="bouleb1">
	<circle fill="#29ABE2" cx="254.463" cy="223.499" r="19.333"/>
</g>
<g id="bouleb2">
	<circle fill="#29ABE2" cx="410.463" cy="309.499" r="19.333"/>
</g>
<g id="bouleb3">
	<circle fill="#29ABE2" cx="269.463" cy="447.499" r="19.333"/>
</g>
<g id="bouleb4">
	<circle fill="#29ABE2" cx="364.463" cy="517.499" r="19.333"/>
</g>
</svg>
