<?xml version="1.0" encoding="utf-8"?>
<!-- Generator: Adobe Illustrator 16.0.0, SVG Export Plug-In . SVG Version: 6.00 Build 0)  -->
<!DOCTYPE svg PUBLIC "-//W3C//DTD SVG 1.1//EN" "http://www.w3.org/Graphics/SVG/1.1/DTD/svg11.dtd">
<svg version="1.1" id="Calque_1" xmlns="http://www.w3.org/2000/svg" xmlns:xlink="http://www.w3.org/1999/xlink" x="0px" y="0px"
	 width="1036px" height="269px" viewBox="0 0 1036 269" enable-background="new 0 0 1036 269" xml:space="preserve">
<path fill="#C42127" d="M0,91.981c0,0,130.907-32.153,205.549-24.114l4.592,170.006c0,0-155.025,19.465-208.996,30.951
	l40.196-97.609L0,91.981z"/>
<polygon fill="#681C1D" points="210.141,63.328 137.655,174.662 99.904,196.533 210.141,237.874 "/>
<path fill="#C42127" d="M1035.67,91.858c0,0-130.912-32.153-205.553-24.117l-4.588,170.006c0,0,155.021,19.466,208.993,30.952
	l-40.197-97.607L1035.67,91.858z"/>
<polygon fill="#681C1D" points="825.529,63.205 898.014,174.536 935.768,196.408 825.529,237.748 "/>
<path fill="#ED2324" d="M935.892,196.479c0,0-94.16-34.125-417.991-34.125c-323.835,0-417.995,34.125-417.995,34.125L97.07,48.013
	C97.07,48.013,242.295,0,517.9,0c275.6,0,415.156,48.013,415.156,48.013L935.892,196.479z"/>
<path fill="none" d="M-88.307,172.271c225.261-75.877,746.512-78.89,965.82-39.071"/>
<text transform="matrix(0.9966 -0.0826 0.0826 0.9966 201.5674 120.5288)"><tspan x="0" y="0" fill="#FFFFFF" font-family="'CenturyGothic'" font-size="85">J</tspan><tspan x="40.722" y="-0.055" fill="#FFFFFF" font-family="'CenturyGothic'" font-size="85" rotate="0.946">o</tspan><tspan x="96.134" y="0.903" fill="#FFFFFF" font-family="'CenturyGothic'" font-size="85" rotate="1.85">y</tspan><tspan x="141.48" y="2.334" fill="#FFFFFF" font-family="'CenturyGothic'" font-size="85" rotate="2.69">e</tspan><tspan x="196.442" y="4.931" fill="#FFFFFF" font-family="'CenturyGothic'" font-size="85" rotate="3.54">u</tspan><tspan x="247.862" y="8.165" fill="#FFFFFF" font-family="'CenturyGothic'" font-size="85" rotate="4.199">s</tspan><tspan x="280.597" y="10.5" fill="#FFFFFF" font-family="'CenturyGothic'" font-size="85" rotate="4.887">e</tspan><tspan x="335.434" y="15.254" fill="#FFFFFF" font-family="'CenturyGothic'" font-size="85" rotate="5.589">s</tspan><tspan x="368.169" y="18.475" fill="#FFFFFF" font-family="'CenturyGothic'" font-size="85" rotate="6.055"> </tspan><tspan x="391.425" y="20.897" fill="#FFFFFF" font-family="'CenturyGothic'" font-size="85" rotate="6.61">F</tspan><tspan x="432.156" y="25.554" fill="#FFFFFF" font-family="'CenturyGothic'" font-size="85" rotate="7.504">ê</tspan><tspan x="486.703" y="32.832" fill="#FFFFFF" font-family="'CenturyGothic'" font-size="85" rotate="8.379">t</tspan><tspan x="514.955" y="36.863" fill="#FFFFFF" font-family="'CenturyGothic'" font-size="85" rotate="9.391">e</tspan><tspan x="569.113" y="45.923" fill="#FFFFFF" font-family="'CenturyGothic'" font-size="85" rotate="10.686">s</tspan><tspan x="601.27" y="52.025" fill="#FFFFFF" font-family="'CenturyGothic'" font-size="85" rotate="11.712"> </tspan><tspan x="624.04" y="56.728" fill="#FFFFFF" font-family="'CenturyGothic'" font-size="85" rotate="12.782">!</tspan><tspan x="648.184" y="62.21" font-family="'Castellar'" font-size="60" rotate="14.054"> </tspan></text>
</svg>
