<?xml version="1.0" standalone="no"?>
<!DOCTYPE svg PUBLIC "-//W3C//DTD SVG 20010904//EN"
 "http://www.w3.org/TR/2001/REC-SVG-20010904/DTD/svg10.dtd">
<svg version="1.0" xmlns="http://www.w3.org/2000/svg"
 width="708.000000pt" height="708.000000pt" viewBox="0 0 708.000000 708.000000"
 preserveAspectRatio="xMidYMid meet">
<metadata>
Created by potrace 1.11, written by Peter Selinger 2001-2013
</metadata>
<g transform="translate(0.000000,708.000000) scale(0.100000,-0.100000)"
fill="#000000" stroke="none">
<path d="M5670 7045 c-7 -14 -17 -25 -22 -25 -4 0 -8 -5 -8 -10 0 -6 -5 -16
-11 -23 -6 -7 -44 -59 -85 -117 -41 -58 -80 -112 -87 -121 -6 -8 -16 -23 -22
-31 -5 -9 -55 -79 -110 -154 -55 -76 -102 -143 -104 -148 -2 -6 -8 -15 -13
-21 -25 -30 -45 -55 -58 -75 -49 -71 -140 -198 -154 -212 -9 -10 -13 -18 -10
-18 3 0 -1 -6 -8 -14 -7 -7 -19 -22 -26 -32 -7 -11 -62 -89 -123 -174 -62 -85
-114 -161 -117 -168 -3 -9 -14 -4 -33 18 -16 17 -29 34 -29 37 0 3 -16 25 -35
49 -19 23 -35 45 -35 47 0 3 -9 16 -20 29 -11 12 -56 73 -101 133 -44 61 -85
117 -92 125 -7 8 -42 55 -77 105 -36 49 -70 97 -77 105 -7 8 -49 65 -93 125
-45 61 -90 121 -100 135 -10 14 -42 57 -70 95 -28 39 -59 80 -68 92 -9 12 -57
76 -106 142 -48 67 -92 121 -97 121 -5 0 -161 -151 -346 -336 -310 -311 -335
-338 -317 -350 10 -7 24 -17 29 -21 6 -4 37 -26 70 -48 33 -22 64 -44 70 -48
15 -13 659 -461 739 -515 l69 -47 -1916 -3 c-1817 -2 -1917 -3 -1918 -20 -4
-113 -3 -152 3 -152 4 0 5 -6 3 -12 -8 -22 -11 -128 -4 -128 4 0 5 -8 3 -17
-7 -31 -9 -153 -2 -153 3 0 4 -8 2 -17 -6 -29 -10 -153 -4 -153 4 0 4 -71 0
-77 -2 -4 -2 -61 0 -70 1 -5 1 -26 0 -48 -5 -97 -5 -115 2 -115 4 0 3 -13 -2
-29 -4 -15 -4 -34 0 -42 5 -7 4 -21 -1 -30 -6 -11 -5 -20 1 -24 5 -3 7 -12 3
-20 -4 -13 45 -15 375 -15 l380 0 4 -60 c1 -33 0 -61 -3 -63 -4 -1 -4 -22 0
-47 4 -25 4 -60 0 -78 -4 -18 -3 -35 2 -38 5 -3 7 -10 3 -15 -4 -8 -6 -114 -3
-199 1 -13 0 -67 -1 -162 0 -10 0 -24 -1 -30 0 -16 0 -122 1 -167 0 -19 3 -38
6 -43 3 -4 1 -8 -4 -8 -5 0 -7 -15 -5 -32 3 -18 4 -39 4 -45 -2 -28 -2 -40 -2
-98 0 -107 2 -138 7 -146 2 -4 0 -9 -5 -11 -5 -1 -6 -23 -2 -48 4 -25 4 -58 1
-75 -3 -16 -3 -49 1 -72 3 -23 2 -44 -2 -45 -4 -2 -4 -23 0 -48 4 -25 4 -58 1
-75 -3 -16 -3 -49 1 -72 3 -23 2 -44 -2 -45 -4 -2 -4 -23 0 -48 4 -25 4 -59 1
-76 -4 -16 -4 -39 0 -50 4 -10 4 -29 -1 -41 -5 -12 -4 -25 0 -27 5 -3 6 -20 2
-38 -4 -18 -4 -52 -1 -75 4 -23 3 -44 -1 -45 -4 -2 -4 -23 0 -48 4 -25 4 -58
1 -75 -3 -16 -3 -49 1 -73 3 -23 2 -42 -3 -42 -5 0 -7 -9 -3 -20 3 -10 6 -41
5 -67 0 -26 -1 -56 -1 -65 1 -24 0 -63 0 -90 -1 -29 0 -133 1 -177 0 -19 3
-38 6 -43 3 -4 1 -8 -4 -8 -5 0 -7 -15 -5 -32 3 -18 4 -39 4 -45 -2 -28 -2
-40 -2 -98 0 -108 2 -138 7 -147 3 -4 2 -8 -3 -8 -4 0 -7 -44 -5 -97 1 -54 2
-127 1 -163 0 -36 0 -76 1 -90 1 -14 2 -38 1 -55 -2 -112 -1 -137 4 -144 3 -5
1 -11 -4 -13 -5 -1 -6 -23 -2 -48 4 -25 4 -58 1 -75 -3 -16 -3 -49 1 -72 3
-24 2 -43 -3 -43 -5 0 -7 -9 -3 -20 3 -10 6 -43 5 -72 0 -29 0 -62 0 -73 1
-11 1 -24 1 -30 0 -5 0 -44 -1 -85 0 -41 0 -104 -1 -140 0 -36 -1 -72 0 -80 0
-8 1 -34 1 -58 l1 -42 2619 0 2619 0 3 28 c2 15 0 41 -3 58 -4 18 -3 38 1 45
5 7 5 22 1 33 -4 12 -5 32 -1 46 4 14 3 34 -1 46 -4 11 -4 27 1 34 5 7 4 24 0
36 -5 13 -5 26 -1 29 5 3 5 21 1 40 -4 19 -4 35 0 35 5 0 5 12 2 28 -4 15 -6
41 -5 57 6 66 5 133 -1 144 -4 6 -3 11 3 11 6 0 7 11 2 28 -3 15 -5 43 -3 62
1 19 4 46 5 60 1 14 -1 40 -4 58 -4 17 -3 32 1 32 5 0 5 12 1 28 -4 15 -5 38
-1 52 3 14 3 39 -1 56 -3 18 -3 38 1 45 5 7 5 22 1 33 -4 12 -5 32 -1 46 4 14
3 34 -1 46 -4 11 -4 27 1 34 5 7 4 24 0 36 -5 13 -5 26 -1 29 5 3 5 21 1 40
-4 19 -4 35 0 35 5 0 5 12 2 28 -4 15 -6 41 -5 57 6 66 5 133 -1 144 -4 6 -3
11 3 11 6 0 7 11 2 28 -3 15 -5 43 -3 62 1 19 4 46 5 60 1 14 -1 40 -4 58 -4
17 -3 32 1 32 5 0 5 12 1 28 -4 15 -5 38 -1 52 3 14 3 39 -1 56 -3 18 -3 38 1
45 5 7 5 22 1 33 -4 12 -5 32 -1 46 4 14 3 34 -1 46 -4 11 -4 27 1 34 5 7 4
24 0 36 -5 13 -5 26 -1 29 5 3 5 21 1 40 -4 19 -4 35 0 35 5 0 5 12 2 28 -4
15 -6 41 -5 57 6 66 5 133 -1 144 -4 6 -3 11 3 11 6 0 7 11 2 28 -3 15 -5 43
-3 62 1 19 4 46 5 60 1 14 -1 40 -4 58 -4 17 -3 32 1 32 5 0 5 12 1 28 -4 15
-5 38 -1 52 3 14 3 39 -1 56 -3 18 -3 38 1 45 5 7 5 22 1 33 -4 12 -5 32 -1
46 4 14 3 34 -1 46 -4 11 -4 27 1 34 5 7 5 23 0 35 -5 12 -5 27 0 34 4 7 4 28
0 46 -4 18 -4 39 0 46 5 7 5 22 1 33 -4 12 -5 32 -1 46 4 14 3 34 -1 46 -4 11
-4 27 1 34 5 7 4 24 0 36 -5 13 -5 26 -1 29 5 3 5 21 1 40 -4 19 -4 35 0 35 5
0 5 12 2 28 -4 15 -6 41 -5 57 6 66 5 133 -1 144 -4 6 -3 11 3 11 6 0 7 11 2
28 -3 15 -5 43 -3 62 1 19 4 46 5 60 1 14 -1 40 -4 58 -4 17 -3 32 1 32 5 0 5
12 1 28 -4 15 -5 38 -1 52 4 14 3 36 0 50 -4 14 -4 34 0 45 4 11 4 29 0 40 -4
11 -4 29 0 40 4 11 4 32 0 46 -4 15 -4 32 0 39 5 7 5 22 1 33 -4 10 -5 32 -3
48 l4 29 378 0 378 0 0 34 c0 19 2 38 5 43 2 4 1 17 -3 28 -4 11 -4 34 1 52 4
18 3 35 -2 38 -4 3 -5 16 0 28 5 12 5 31 1 42 -4 11 -4 34 1 52 4 18 3 33 -1
33 -5 0 -5 12 -1 28 5 15 5 36 1 47 -4 11 -4 34 1 52 4 18 3 35 -2 38 -4 3 -5
16 -1 28 4 12 7 36 5 52 -1 17 -2 53 -2 80 0 28 0 60 0 73 -1 52 -1 85 -1 135
0 28 0 67 0 86 0 19 2 36 4 38 3 3 1 16 -4 29 -5 13 -6 26 -1 28 5 3 6 17 3
31 l-4 25 -786 0 -786 0 31 23 c56 40 140 105 154 119 8 7 30 25 49 39 19 15
45 35 57 45 12 11 36 30 54 44 18 14 37 30 43 35 6 6 29 23 51 39 22 17 42 33
45 36 4 4 137 110 208 165 7 5 21 17 30 26 9 8 65 53 125 98 59 46 107 87 107
90 0 5 -574 584 -611 616 -3 3 -12 -6 -19 -20z"/>
</g>
</svg>
